<svg width="1366" height="1366" viewBox="0 0 1366 1366" fill="none" xmlns="http://www.w3.org/2000/svg">
<path d="M660 154.667V178.667H650.267C644.8 178.667 632.267 179.067 622.267 179.6L604 180.4V218.133V256L631.733 256.267L659.333 256.667L659.733 271.6C660.133 288.267 660.933 287.067 648.667 288.667C637.333 290.133 622.667 293.333 607.333 297.6C555.467 312 522.533 337.067 522.533 362.133C522.533 376.667 525.467 383.6 537.867 397.733C558.4 421.333 568.267 439.2 574.8 464.8C578.667 479.333 578.933 482.667 579.2 504C579.333 525.2 579.067 528.133 576.267 535.733C574.667 540.4 571.067 547.333 568.533 551.2C564.533 557.333 563.067 558.4 558.667 559.067C550.4 560.133 539.2 566 532.8 572.667C524.667 581.067 520.933 590.933 520.8 604.667C520.667 618.667 524.267 626.8 534.267 636C544.4 645.2 550 646.667 576.4 646.667H597.6L597.2 658.267C596.933 664.8 597.333 670.267 597.867 670.533C599.867 671.333 644.533 632.4 736 550C766.933 522.267 791.2 500.667 813.067 481.467C818.4 476.8 823.067 473.333 823.467 473.6C824.8 475.067 802.667 522.133 757.333 614.667C714.667 701.6 698.8 730.667 675.2 765.733C661.067 786.533 627.467 831.467 618.133 842L612.267 848.667L615.467 833.333C617.333 824.933 621.733 805.067 625.467 789.333C629.067 773.6 636 743.867 640.8 723.333C645.467 702.8 649.6 685.2 650 684.267C650.4 683.067 644.533 682.667 623.467 682.667H596.4L595.467 701.6C594.933 712.133 594.267 723.333 594 726.667C593.467 732.133 591.467 753.2 590 768C586 808 578 859.867 572.533 880.933C566.267 904.933 554 932.933 548.267 935.867C547.067 936.4 543.6 937.467 540.667 937.867C529.733 939.867 517.067 950.267 511.867 961.867C509.867 966.4 509.333 970.667 509.333 987.067V1006.8L505.067 1008.27C497.6 1010.93 477.067 1021.47 468.667 1027.2C457.2 1034.8 438.933 1053.87 432.533 1064.67C421.6 1083.33 417.333 1098 417.067 1116.8C416.933 1129.87 419.467 1138.27 426.533 1147.47L431.733 1154.4L426.667 1159.33C417.867 1167.87 414.267 1176.13 413.467 1190L412.667 1202L368 1202.67C343.467 1203.07 322.267 1203.87 320.933 1204.53C317.333 1206.27 314.4 1212.93 315.333 1217.2C315.733 1219.33 317.6 1222.4 319.467 1224.13L322.933 1227.33L395.733 1228.4C504.933 1230 1081.07 1228.8 1085.6 1226.93C1093.6 1223.6 1096.93 1216.13 1093.33 1209.2C1090 1203.07 1086.8 1202.67 1041.07 1202.67H998L997.733 1192.13C997.467 1179.07 993.6 1170.13 984.133 1160.8L977.467 1154.27L981.333 1149.73C983.6 1147.2 986.933 1142.13 988.933 1138.27C992.267 1132 992.667 1130 992.667 1116.67C992.667 1105.07 992 1100 989.6 1092C978.267 1056 950.533 1027.2 912.533 1011.73L901.6 1007.33L901.067 986.667C900.533 964 899.467 960.267 890.533 950.133C885.867 944.8 872.533 937.733 865.067 936.533C860.667 935.733 859.333 934.667 855.333 928.133C839.867 902.533 832.933 873.733 823.467 796C817.467 746.933 814.8 706.533 814.667 663.867V646.933L837.067 646.4C862.533 645.867 867.067 644.533 877.2 634.4C886.267 625.2 888.667 618.8 888.667 604C888.667 589.733 886.533 583.6 878 573.6C872.4 567.2 859.6 560.4 850.667 559.2C843.6 558.267 841.467 556.267 835.6 544.667C830.933 535.333 829.333 526.133 829.333 509.2C829.333 478.4 836.667 450.133 850.8 426.4C853.733 421.467 861.2 411.2 867.333 403.733C873.6 396.133 880.667 386.667 882.933 382.667C886.533 376.267 887.067 374 887.2 364.667C887.333 352 884.667 345.333 875.067 334.667C857.467 315.067 812.133 295.733 766 288.267L751.333 285.867V271.333V256.667L779.067 256.267L806.667 256V218V180H778.667H750.667V155.333V130.667H705.333H660V154.667ZM715.333 311.067C725.067 313.333 722.933 314.133 704 315.2C678.4 316.8 655.867 322.133 647.333 328.533C643.067 331.867 642.667 331.867 609.733 332.267C578.933 332.667 576.667 332.533 579.2 330.533C590 322.133 613.333 314.8 645.333 309.867C659.733 307.6 703.867 308.4 715.333 311.067ZM709.333 357.067C709.333 357.6 704.4 359.867 698.4 362C692.4 364.267 683.333 368.533 678.267 371.6L669.067 377.333H614.533H559.867L556.667 374C552.133 369.6 552.267 363.6 556.8 359.333L560.4 356H634.8C675.867 356 709.333 356.533 709.333 357.067ZM712.8 528.133C707.2 532.533 702.4 536.8 702 537.467C701.467 538.133 681.467 538.667 653.067 538.667H605.067L605.867 535.333C606.4 533.467 607.067 529.333 607.6 526L608.4 520H665.6H722.8L712.8 528.133ZM656.133 579.2C655.2 580.267 651.6 581.733 648 582.667C640.267 584.533 627.867 592 624.8 596.667L622.667 600H588C567.333 600 553.333 599.467 553.333 598.8C553.333 592.667 560.667 583.6 568.667 579.867C573.467 577.6 578 577.333 615.867 577.333C651.733 577.333 657.467 577.6 656.133 579.2ZM790.8 762.933C777.733 808.933 764.933 855.6 755.2 892C751.2 907.067 747.6 920.4 747.2 921.6C746.533 923.867 749.333 924 788.267 924.267L830 924.667L819.333 933.333C813.467 938.133 800.267 949.067 790 957.867C779.733 966.533 754.267 988.133 733.333 1005.73C668.933 1060.27 631.467 1092.4 588.133 1130C584.133 1133.47 587.867 1125.33 614.933 1072C632.267 1037.87 655.333 992 666.4 970C697.2 908.667 730.8 845.867 774 768.667C796.933 727.6 800.4 721.867 801.067 723.733C801.333 724.533 796.8 742.267 790.8 762.933ZM639.6 866.933C637.2 887.067 621.6 931.067 615.6 934.933C613.733 936.133 582.667 936.4 582.667 935.333C582.667 934.933 585.333 929.867 588.533 924.267C591.733 918.667 595.333 910.933 596.533 907.2C598 902.8 599.867 899.867 602 898.667C604.933 897.067 626 875.333 635.333 864.267C637.333 862 639.2 860 639.6 860C640 860 640 863.2 639.6 866.933ZM636 959.467C636 959.867 633.733 964.4 631.067 969.467L626 978.667H581.6H537.2L538.133 975.6C540.533 967.733 545.467 962.133 552 959.6C554.667 958.667 636 958.4 636 959.467ZM612.4 1007.6C611.733 1009.33 603.733 1024.8 602 1027.6C601.867 1027.73 595.867 1028.53 588.533 1029.33C544 1034.27 510.133 1054 489.733 1086.93L484.933 1094.67H467.733H450.533L451.333 1091.6C453.2 1085.6 460.267 1073.73 467.067 1065.33C476.533 1053.6 493.067 1040.67 509.2 1032.13C524.8 1024 528.667 1021.07 535.333 1012L540.267 1005.33H576.8C610.933 1005.33 613.2 1005.47 612.4 1007.6ZM556.4 1122L552.8 1129.33L500.8 1129.07L448.667 1128.67L447.467 1125.07C446.533 1122.4 446.8 1120.67 448.533 1118.13L450.667 1114.67H505.333H560L556.4 1122ZM670.4 1160.67C685.2 1161.2 697.333 1162.13 697.333 1162.67C697.333 1163.2 692.667 1164.13 687.067 1164.67C669.467 1166.13 641.067 1170.4 633.867 1172.53C630.267 1173.73 625.733 1176.13 624 1178L620.933 1181.33H534.267H447.6L448.4 1176.53C449.2 1171.6 453.067 1166.4 458 1163.6C459.6 1162.67 469.6 1161.73 482.667 1161.33C521.333 1160.13 642.4 1159.73 670.4 1160.67Z" fill="white"/>
<path d="M481.067 194.933C479.867 195.867 477.867 200.533 476.667 205.333C472.8 220.267 465.733 228.533 453.067 232.667C443.867 235.733 442.4 236.933 442.933 241.867C443.333 246.267 445.067 247.467 456.4 251.333C467.467 255.2 473.2 262.267 477.6 277.2C479.6 284 482.133 286.133 487.067 284.8C490 284.133 490.933 282.533 493.2 274.933C497.467 260.8 506.267 252.133 518.933 249.867C524.8 248.667 528 245.733 528 241.333C528 236.933 526.4 235.6 519.333 233.333C504.667 228.8 496 219.6 493.2 205.333C492.4 201.067 491.333 197.067 490.8 196.267C489.333 193.867 483.467 193.067 481.067 194.933Z" fill="white"/>
<path d="M926.4 194.267C924.133 194.8 922.533 198.267 920.133 208.4C918.267 216.267 912.933 224.533 907.467 227.867C905.2 229.333 899.867 231.733 895.733 233.333C890 235.467 887.867 236.933 887.2 239.333C886.267 243.333 888.533 247.6 892.267 248.667C902.4 251.333 905.867 252.933 910.667 257.067C916.933 262.4 919.333 266.533 921.333 275.467C923.2 283.467 924.667 285.333 929.467 285.333C933.6 285.333 934.533 284 939.467 270C943.333 258.8 952.4 251.867 967.067 248.667C971.867 247.733 974.4 242.667 972.267 238C971.2 235.733 968.8 234.133 963.467 232.667C949.333 228.533 939.6 218 937.733 204.667C936.533 195.733 933.067 192.533 926.4 194.267Z" fill="white"/>
<path d="M264.267 228.267C261.067 231.467 262.933 235.467 277.2 257.2C294.8 284.133 313.867 313.733 335.067 347.333C343.867 361.2 356.667 381.333 363.6 392L376.133 411.333L372.133 411.733C366.4 412.4 284.667 404.667 253.2 400.533C246.4 399.6 242.267 402.267 242.933 407.067C243.333 410 244 410.4 254.667 414.667C263.067 418.133 304 436.933 330.667 449.733C365.333 466.267 419.467 491.733 437.333 500C447.2 504.533 466.8 513.6 480.933 520.267C507.867 532.933 511.2 533.6 512.8 527.2C513.867 523.2 514.133 523.467 481.867 489.067C457.2 462.8 430.4 433.067 431.067 432.533C431.2 432.4 438.533 433.467 447.333 434.8C467.333 438 471.2 437.733 471.733 433.467C472.133 430.8 463.467 421.333 419.733 377.467C370.933 328.4 296.533 252.133 280 234.267C272.8 226.533 267.867 224.667 264.267 228.267Z" fill="white"/>
<path d="M1130.4 234.267C1098.8 267.867 1060 307.733 1002.8 365.067C943.333 424.667 936.133 432.4 937.333 434.667C939.067 438 942.8 438 962.8 435.2C970.933 434.133 977.867 433.467 978.133 433.733C978.8 434.4 932.933 485.2 908.4 511.067C902.267 517.467 897.333 523.867 897.333 525.2C897.333 528.133 900.667 532 903.067 532C904 532 912.8 528 922.667 523.2C938.4 515.467 952.4 509.067 1012 482C1018.93 478.8 1028.53 474.4 1033.33 472.267C1038.13 470 1056.13 461.867 1073.33 453.867C1090.53 446 1118.8 433.2 1136 425.2C1153.2 417.333 1168.13 409.733 1169.07 408.267C1170.53 406.133 1170.4 405.2 1168.27 402.667L1165.73 399.6L1147.87 401.733C1129.07 404.133 1065.07 410.267 1044.8 411.6L1032.93 412.4L1037.6 405.2C1040.27 401.2 1054.4 379.067 1069.33 356C1084.13 332.933 1099.73 308.933 1104 302.667C1113.07 289.2 1141.87 244.133 1145.87 237.067C1148.53 232.267 1148.53 232.133 1146.13 229.467C1141.87 224.8 1138.27 226 1130.4 234.267Z" fill="white"/>
<path d="M240.667 504.267C232 509.2 233.333 511.467 265.733 544.8C354.533 636.533 349.867 631.333 345.733 631.6C343.733 631.733 329.733 632.533 314.667 633.333C267.067 635.867 159.733 642.8 148.4 643.867C142.267 644.533 136.4 645.733 135.333 646.667C132.667 648.933 132.8 653.733 135.733 656.267C138.667 658.933 141.867 659.467 176.667 662.667C192.8 664.133 227.6 667.467 254 670C280.4 672.533 321.467 676.4 345.333 678.667C369.2 680.8 402.133 683.867 418.667 685.333C500 692.933 500.533 692.933 503.333 691.333C508.4 688.267 507.467 683.6 500.4 677.733C492.4 671.067 438.4 632.667 379.333 591.467C360.933 578.667 277.733 523.067 256.533 509.6C244.8 502.133 244.667 502 240.667 504.267Z" fill="white"/>
<path d="M1154 509.867C1148.13 513.867 1120.53 532.533 1092.67 551.467C1042.53 585.467 987.467 623.867 951.333 650C941.067 657.333 926.8 667.6 919.6 672.533C904.8 682.8 902.667 685.6 906.133 689.467C909.2 692.933 915.2 692.8 966.933 688C990.667 685.867 1030.13 682.267 1054.67 680C1079.2 677.733 1107.73 675.067 1118 674C1128.27 672.8 1149.33 670.8 1164.67 669.333C1277.87 658.533 1276 658.8 1276 650.667C1276 643.733 1286 644.8 1147.33 636C1123.2 634.4 1095.07 632.667 1084.93 632.267L1066.67 631.333L1082.93 613.333C1111.2 582 1144 546.533 1159.6 530.533C1175.07 514.667 1176.8 511.333 1173.07 506.267C1169.33 501.467 1165.2 502.133 1154 509.867Z" fill="white"/>
<path d="M489.333 724.133C482.8 725.467 432.533 734.133 334 750.8C216.933 770.533 214.533 770.933 198.267 772.8C191.067 773.6 186.667 775.867 186.667 778.667C186.667 781.733 193.467 783.733 206.667 784.667C233.333 786.267 352.4 796 352.933 796.4C353.067 796.667 349.067 802.8 343.733 810.133C338.533 817.333 330.667 828.4 326.133 834.667C302 868.667 274.4 907.067 268.533 914.4C260.267 925.2 257.333 929.6 257.333 931.6C257.333 934.267 262.4 938.667 265.333 938.667C266.8 938.667 276.533 930.933 288.267 920.267C312.4 898.533 333.6 879.867 371.333 847.467C386.8 834.267 406.533 817.2 415.2 809.467C424 801.733 447.733 781.333 467.867 764.267C488.133 747.2 505.467 731.733 506.533 730C510.533 723.467 504 721.2 489.333 724.133Z" fill="white"/>
<path d="M904.4 724.133C903.467 725.067 902.667 726.667 902.667 727.6C902.667 728.533 908.133 734 914.933 739.6C936 757.467 995.467 808.8 1024 834C1039.07 847.2 1059.47 864.933 1069.33 873.6C1092.67 893.6 1125.2 922.4 1134.93 931.6C1143.73 939.867 1148.4 940.667 1151.87 934.4C1154.13 930.4 1156.13 933.467 1128 895.2C1099.6 856.533 1056.4 796.667 1056.67 796.4C1056.8 796.133 1068.8 795.2 1083.47 794.133C1217.73 784.267 1225.33 783.333 1225.33 778.133C1225.33 774.667 1221.73 773.467 1202.67 770.667C1192 769.2 1168.93 765.6 1151.33 762.667C1133.73 759.867 1105.87 755.333 1089.33 752.667C1059.6 747.867 1011.47 739.867 950 729.2C909.867 722.4 906.4 722 904.4 724.133Z" fill="white"/>
<path d="M405.067 878.933C403.867 879.867 402.133 883.333 401.333 886.667C397.333 901.867 387.6 912 374 915.2C362.133 918.133 362.533 928.8 374.667 931.333C388.533 934.267 396.4 942.4 401.333 958.667C403.067 964.4 404.267 966.267 407.067 967.2C411.867 968.933 415.2 965.733 417.2 957.6C419.067 950.533 425.2 940.533 430.4 936.8C432.267 935.333 437.467 933.2 441.867 932C448.533 930.267 450.133 929.333 451.2 926.4C453.467 920.133 450.667 916.667 440.533 913.333C428.667 909.333 422.267 902.933 419.333 892.4C418.267 888.133 416.533 883.2 415.6 881.333C413.733 877.467 408.533 876.4 405.067 878.933Z" fill="white"/>
<path d="M993.467 879.067C992.667 880.133 990.8 885.067 989.2 890.133C985.6 901.867 977.467 910.4 966.533 914C958.4 916.667 954.667 919.333 954.667 922.533C954.667 926.533 958.533 930.4 963.6 931.333C976.533 933.733 985.2 942.133 989.467 956.4C992.667 966.4 995.6 969.2 1000.8 966.8C1002.93 965.867 1004.53 963.333 1006 958.267C1010.27 943.6 1019.73 933.733 1031.87 931.467C1041.2 929.733 1044.27 922.533 1037.87 917.467C1035.87 915.867 1033.47 914.667 1032.4 914.667C1028.67 914.667 1017.33 907.867 1014.27 903.733C1010.27 898.4 1006.67 890.133 1006.67 886.133C1006.67 879.067 997.6 874.267 993.467 879.067Z" fill="white"/>
</svg>
