<?xml version="1.0" standalone="no"?>
<!DOCTYPE svg PUBLIC "-//W3C//DTD SVG 20010904//EN"
 "http://www.w3.org/TR/2001/REC-SVG-20010904/DTD/svg10.dtd">
<svg version="1.0" xmlns="http://www.w3.org/2000/svg"
 width="1024.000000pt" height="1024.000000pt" viewBox="0 0 1024.000000 1024.000000"
 preserveAspectRatio="xMidYMid meet">
<metadata>
Created by potrace 1.16, written by Peter Selinger 2001-2019
</metadata>
<g transform="translate(0.000000,1024.000000) scale(0.100000,-0.100000)"
fill="#000000" stroke="none">
<path d="M4950 9080 l0 -180 -73 0 c-41 0 -135 -3 -210 -7 l-137 -6 0 -283 0
-284 208 -2 207 -3 3 -112 c3 -125 9 -116 -83 -128 -85 -11 -195 -35 -310 -67
-389 -108 -636 -296 -636 -484 0 -109 22 -161 115 -267 154 -177 228 -311 277
-503 29 -109 31 -134 33 -294 1 -159 -1 -181 -22 -238 -12 -35 -39 -87 -58
-116 -30 -46 -41 -54 -74 -59 -62 -8 -146 -52 -194 -102 -61 -63 -89 -137 -90
-240 -1 -105 26 -166 101 -235 76 -69 118 -80 316 -80 l159 0 -3 -87 c-2 -49
1 -90 5 -92 15 -6 350 286 1036 904 232 208 414 370 578 514 40 35 75 61 78
59 10 -11 -156 -364 -496 -1058 -320 -652 -439 -870 -616 -1133 -106 -156
-358 -493 -428 -572 l-44 -50 24 115 c14 63 47 212 75 330 27 118 79 341 115
495 35 154 66 286 69 293 3 9 -41 12 -199 12 l-203 0 -7 -142 c-4 -79 -9 -163
-11 -188 -4 -41 -19 -199 -30 -310 -30 -300 -90 -689 -131 -847 -47 -180 -139
-390 -182 -412 -9 -4 -35 -12 -57 -15 -82 -15 -177 -93 -216 -180 -15 -34 -19
-66 -19 -189 l0 -148 -32 -11 c-56 -20 -210 -99 -273 -142 -86 -57 -223 -200
-271 -281 -82 -140 -114 -250 -116 -391 -1 -98 18 -161 71 -230 l39 -52 -38
-37 c-66 -64 -93 -126 -99 -230 l-6 -90 -335 -5 c-184 -3 -343 -9 -353 -14
-27 -13 -49 -63 -42 -95 3 -16 17 -39 31 -52 l26 -24 546 -8 c819 -12 5140 -3
5174 11 60 25 85 81 58 133 -25 46 -49 49 -392 49 l-323 0 -2 79 c-2 98 -31
165 -102 235 l-50 49 29 34 c17 19 42 57 57 86 25 47 28 62 28 162 0 87 -5
125 -23 185 -85 270 -293 486 -578 602 l-82 33 -4 155 c-4 170 -12 198 -79
274 -35 40 -135 93 -191 102 -33 6 -43 14 -73 63 -116 192 -168 408 -239 991
-45 368 -65 671 -66 991 l0 127 168 4 c191 4 225 14 301 90 68 69 86 117 86
228 0 107 -16 153 -80 228 -42 48 -138 99 -205 108 -53 7 -69 22 -113 109 -35
70 -47 139 -47 266 0 231 55 443 161 621 22 37 78 114 124 170 47 57 100 128
117 158 27 48 31 65 32 135 1 95 -19 145 -91 225 -132 147 -472 292 -818 348
l-110 18 0 109 0 110 208 3 207 2 0 285 0 285 -210 0 -210 0 0 185 0 185 -340
0 -340 0 0 -180z m415 -1173 c73 -17 57 -23 -85 -31 -192 -12 -361 -52 -425
-100 -32 -25 -35 -25 -282 -28 -231 -3 -248 -2 -229 13 81 63 256 118 496 155
108 17 439 11 525 -9z m-45 -345 c0 -4 -37 -21 -82 -37 -45 -17 -113 -49 -151
-72 l-69 -43 -409 0 -410 0 -24 25 c-34 33 -33 78 1 110 l27 25 558 0 c308 0
559 -4 559 -8z m26 -1283 c-42 -33 -78 -65 -81 -70 -4 -5 -154 -9 -367 -9
l-360 0 6 25 c4 14 9 45 13 70 l6 45 429 0 429 0 -75 -61z m-425 -383 c-7 -8
-34 -19 -61 -26 -58 -14 -151 -70 -174 -105 l-16 -25 -260 0 c-155 0 -260 4
-260 9 0 46 55 114 115 142 36 17 70 19 354 19 269 0 312 -2 302 -14z m1010
-1378 c-98 -345 -194 -695 -267 -968 -30 -113 -57 -213 -60 -222 -5 -17 16
-18 308 -20 l313 -3 -80 -65 c-44 -36 -143 -118 -220 -184 -77 -65 -268 -227
-425 -359 -483 -409 -764 -650 -1089 -932 -30 -26 -2 35 201 435 130 256 303
600 386 765 231 460 483 931 807 1510 172 308 198 351 203 337 2 -6 -32 -139
-77 -294z m-1134 -780 c-18 -151 -135 -481 -180 -510 -14 -9 -247 -11 -247 -3
0 3 20 41 44 83 24 42 51 100 60 128 11 33 25 55 41 64 22 12 180 175 250 258
15 17 29 32 32 32 3 0 3 -24 0 -52z m-27 -694 c0 -3 -17 -37 -37 -75 l-38 -69
-333 0 -333 0 7 23 c18 59 55 101 104 120 20 7 630 9 630 1z m-177 -361 c-5
-13 -65 -129 -78 -150 -1 -1 -46 -7 -101 -13 -334 -37 -588 -185 -741 -432
l-36 -58 -129 0 -129 0 6 23 c14 45 67 134 118 197 71 88 195 185 316 249 117
61 146 83 196 151 l37 50 274 0 c256 0 273 -1 267 -17z m-420 -858 l-27 -55
-390 2 -391 3 -9 27 c-7 20 -5 33 8 52 l16 26 410 0 410 0 -27 -55z m855 -290
c111 -4 202 -11 202 -15 0 -4 -35 -11 -77 -15 -132 -11 -345 -43 -399 -59 -27
-9 -61 -27 -74 -41 l-23 -25 -650 0 -650 0 6 36 c6 37 35 76 72 97 12 7 87 14
185 17 290 9 1198 12 1408 5z"/>
<path d="M3608 8778 c-9 -7 -24 -42 -33 -78 -29 -112 -82 -174 -177 -205 -69
-23 -80 -32 -76 -69 3 -33 16 -42 101 -71 83 -29 126 -82 159 -194 15 -51 34
-67 71 -57 22 5 29 17 46 74 32 106 98 171 193 188 44 9 68 31 68 64 0 33 -12
43 -65 60 -110 34 -175 103 -196 210 -6 32 -14 62 -18 68 -11 18 -55 24 -73
10z"/>
<path d="M6948 8783 c-17 -4 -29 -30 -47 -106 -14 -59 -54 -121 -95 -146 -17
-11 -57 -29 -88 -41 -43 -16 -59 -27 -64 -45 -7 -30 10 -62 38 -70 76 -20 102
-32 138 -63 47 -40 65 -71 80 -138 14 -60 25 -74 61 -74 31 0 38 10 75 115 29
84 97 136 207 160 36 7 55 45 39 80 -8 17 -26 29 -66 40 -106 31 -179 110
-193 210 -9 67 -35 91 -85 78z"/>
<path d="M1982 8528 c-24 -24 -10 -54 97 -217 132 -202 275 -424 434 -676 66
-104 162 -255 214 -335 l94 -145 -30 -3 c-43 -5 -656 53 -892 84 -51 7 -82
-13 -77 -49 3 -22 8 -25 88 -57 63 -26 370 -167 570 -263 260 -124 666 -315
800 -377 74 -34 221 -102 327 -152 202 -95 227 -100 239 -52 8 30 10 28 -232
286 -185 197 -386 420 -381 424 1 1 56 -7 122 -17 150 -24 179 -22 183 10 3
20 -62 91 -390 420 -366 368 -924 940 -1048 1074 -54 58 -91 72 -118 45z"/>
<path d="M8478 8483 c-237 -252 -528 -551 -957 -981 -446 -447 -500 -505 -491
-522 13 -25 41 -25 191 -4 61 8 113 13 115 11 5 -5 -339 -386 -523 -580 -46
-48 -83 -96 -83 -106 0 -22 25 -51 43 -51 7 0 73 30 147 66 118 58 223 106
670 309 52 24 124 57 160 73 36 17 171 78 300 138 129 59 341 155 470 215 129
59 241 116 248 127 11 16 10 23 -6 42 l-19 23 -134 -16 c-141 -18 -621 -64
-773 -74 l-89 -6 35 54 c20 30 126 196 238 369 111 173 228 353 260 400 68
101 284 439 314 492 20 36 20 37 2 57 -32 35 -59 26 -118 -36z"/>
<path d="M1805 6458 c-65 -37 -55 -54 188 -304 666 -688 631 -649 600 -651
-15 -1 -120 -7 -233 -13 -357 -19 -1162 -71 -1247 -79 -46 -5 -90 -14 -98 -21
-20 -17 -19 -53 3 -72 22 -20 46 -24 307 -48 121 -11 382 -36 580 -55 198 -19
506 -48 685 -65 179 -16 426 -39 550 -50 610 -57 614 -57 635 -45 38 23 31 58
-22 102 -60 50 -465 338 -908 647 -138 96 -762 513 -921 614 -88 56 -89 57
-119 40z"/>
<path d="M8655 6416 c-44 -30 -251 -170 -460 -312 -376 -255 -789 -543 -1060
-739 -77 -55 -184 -132 -238 -169 -111 -77 -127 -98 -101 -127 23 -26 68 -25
456 11 178 16 474 43 658 60 184 17 398 37 475 45 77 9 235 24 350 35 849 81
835 79 835 140 0 52 75 44 -965 110 -181 12 -392 25 -468 28 l-137 7 122 135
c212 235 458 501 575 621 116 119 129 144 101 182 -28 36 -59 31 -143 -27z"/>
<path d="M3670 4809 c-49 -10 -426 -75 -1165 -200 -878 -148 -896 -151 -1018
-165 -54 -6 -87 -23 -87 -44 0 -23 51 -38 150 -45 200 -12 1093 -85 1097 -88
1 -2 -29 -48 -69 -103 -39 -54 -98 -137 -132 -184 -181 -255 -388 -543 -432
-598 -62 -81 -84 -114 -84 -129 0 -20 38 -53 60 -53 11 0 84 58 172 138 181
163 340 303 623 546 116 99 264 227 329 285 66 58 244 211 395 339 152 128
282 244 290 257 30 49 -19 66 -129 44z"/>
<path d="M6783 4809 c-7 -7 -13 -19 -13 -26 0 -7 41 -48 92 -90 158 -134 604
-519 818 -708 113 -99 266 -232 340 -297 175 -150 419 -366 492 -435 66 -62
101 -68 127 -21 17 30 32 7 -179 294 -213 290 -537 739 -535 741 1 2 91 9 201
17 1007 74 1064 81 1064 120 0 26 -27 35 -170 56 -80 11 -253 38 -385 60 -132
21 -341 55 -465 75 -223 36 -584 96 -1045 176 -301 51 -327 54 -342 38z"/>
<path d="M3038 3648 c-9 -7 -22 -33 -28 -58 -30 -114 -103 -190 -205 -214 -89
-22 -86 -102 5 -121 104 -22 163 -83 200 -205 13 -43 22 -57 43 -64 36 -13 61
11 76 72 14 53 60 128 99 156 14 11 53 27 86 36 50 13 62 20 70 42 17 47 -4
73 -80 98 -89 30 -137 78 -159 157 -8 32 -21 69 -28 83 -14 29 -53 37 -79 18z"/>
<path d="M7451 3647 c-6 -8 -20 -45 -32 -83 -27 -88 -88 -152 -170 -179 -61
-20 -89 -40 -89 -64 0 -30 29 -59 67 -66 97 -18 162 -81 194 -188 24 -75 46
-96 85 -78 16 7 28 26 39 64 32 110 103 184 194 201 70 13 93 67 45 105 -15
12 -33 21 -41 21 -28 0 -113 51 -136 82 -30 40 -57 102 -57 132 0 53 -68 89
-99 53z"/>
</g>
</svg>
